<svg xmlns="http://www.w3.org/2000/svg" xmlns:xlink="http://www.w3.org/1999/xlink" width="526.9" height="547.2" viewBox="0 0 494 513"><defs><linearGradient xlink:href="#a" id="d" x1="232.2" y1="731.8" x2="559.6" y2="528.8" gradientUnits="userSpaceOnUse" gradientTransform="translate(9.1 -14.6)"/><linearGradient y2="618.8" x2="758.3" y1="618.8" x1="519.2" gradientUnits="userSpaceOnUse" id="b" gradientTransform="translate(-1753 -219.4)"><stop offset="0" stop-color="#e5e2df"/><stop offset=".1" stop-color="#ede3d0"/><stop offset=".1" stop-color="#ffe6b1"/><stop offset=".1" stop-color="#fff2cd"/><stop offset=".1" stop-color="#fffde7"/><stop offset=".1" stop-color="#fdf8dd"/><stop offset=".1" stop-color="#f6ebc3"/><stop offset=".2" stop-color="#ecd598"/><stop offset=".2" stop-color="#ddb75e"/><stop offset=".2" stop-color="#d09b27"/><stop offset=".3" stop-color="#d19e29"/><stop offset=".3" stop-color="#d5a62f"/><stop offset=".4" stop-color="#dbb438"/><stop offset=".4" stop-color="#e5c846"/><stop offset=".4" stop-color="#f0e258"/><stop offset=".4" stop-color="#f3e85c"/><stop offset=".4" stop-color="#e9df5d"/><stop offset=".5" stop-color="#cfc65e"/><stop offset=".6" stop-color="#a59e60"/><stop offset=".6" stop-color="#797563"/><stop offset=".7" stop-color="#6f7e64"/><stop offset=".7" stop-color="#628a66"/><stop offset=".7" stop-color="#5d8767"/><stop offset=".8" stop-color="#3c766d"/><stop offset=".8" stop-color="#216872"/><stop offset=".8" stop-color="#0f5e75"/><stop offset=".8" stop-color="#045877"/><stop offset=".9" stop-color="#005678"/><stop offset=".9" stop-color="#02577a"/><stop offset=".9" stop-color="#1f719b"/><stop offset=".9" stop-color="#3685b6"/><stop offset=".9" stop-color="#4794c8"/><stop offset=".9" stop-color="#519cd3"/><stop offset=".9" stop-color="#549fd7"/><stop offset=".9" stop-color="#5fa5da"/><stop offset="1" stop-color="#80b8e3"/><stop offset="1" stop-color="#9bc6e9"/><stop offset="1" stop-color="#add1ee"/><stop offset="1" stop-color="#b8d7f1"/><stop offset="1" stop-color="#bcd9f2"/></linearGradient><linearGradient gradientTransform="matrix(.9998 0 0 -.9998 0 1531.7)" y2="929.3" x2="1551.8" y1="929.3" x1="1020.8" gradientUnits="userSpaceOnUse" id="a"><stop offset="0" stop-color="#ba8b01"/><stop offset="0" stop-color="#cdaa37"/><stop offset=".1" stop-color="#e8d886"/><stop offset=".2" stop-color="#f8f4b8"/><stop offset=".2" stop-color="#ffffcb"/><stop offset=".3" stop-color="#ffffcb"/><stop offset=".3" stop-color="#fdf9c1"/><stop offset=".3" stop-color="#f5e6a0"/><stop offset=".4" stop-color="#f0d989"/><stop offset=".4" stop-color="#edd17b"/><stop offset=".4" stop-color="#ecce76"/><stop offset=".5" stop-color="#a26f14"/><stop offset=".6" stop-color="#a26f14"/><stop offset=".6" stop-color="#a67418"/><stop offset=".6" stop-color="#c19234"/><stop offset=".6" stop-color="#d4a848"/><stop offset=".7" stop-color="#e0b654"/><stop offset=".7" stop-color="#e4ba58"/><stop offset=".7" stop-color="#d9a94d"/><stop offset=".7" stop-color="#c38737"/><stop offset=".7" stop-color="#b36f27"/><stop offset=".7" stop-color="#a9601d"/><stop offset=".7" stop-color="#a65b1a"/><stop offset=".7" stop-color="#aa6222"/><stop offset=".7" stop-color="#b57637"/><stop offset=".7" stop-color="#c6965b"/><stop offset=".7" stop-color="#dec38b"/><stop offset=".8" stop-color="#fdfcc9"/><stop offset=".8" stop-color="#ffffcd"/><stop offset=".8" stop-color="#ffffcd"/><stop offset=".8" stop-color="#e5bd5d"/><stop offset=".9" stop-color="#bb913b"/><stop offset=".9" stop-color="#bb913b"/><stop offset=".9" stop-color="#be9337"/><stop offset=".9" stop-color="#c39830"/><stop offset="1" stop-color="#c5992e"/><stop offset="1" stop-color="#7f470a"/></linearGradient><linearGradient xlink:href="#b" id="f" x1="-296.3" y1="610.8" x2="50.1" y2="339.8" gradientUnits="userSpaceOnUse"/><clipPath clipPathUnits="userSpaceOnUse" id="e"><path d="M-279.2 338.8c-11.9 1.5-15.4 15.3-14.4 25.4a113.5 113.5 0 0040.5 75c19.6 18.2 39.9 35.5 60 53 10.5 45 18.4 91.1 37.8 133.3a127.9 127.9 0 0050.7 56.7c26.7 16.7 60.5 26.8 91.4 16.7C-2 695.5 7 688.7 16 682.5c8.2-10.4 15 4.7 21.3 9.9 9.6 10.7 9.1 28-.5 38.5-6.4 7.6-17.6 14.6-27.4 9.3-9.8-4-10.7-15-8-24.2 3.3-11.3-11.5-15-19.8-12-11.4 2.4-21.1 13.8-17.9 25.8 3.7 13.7 14.3 27.1 29.3 28.7a65.8 65.8 0 0059.6-24.7 38.8 38.8 0 000-44.3 93.2 93.2 0 00-17.9-20.3c30.8-22.8 61.6-47.2 83.5-79 9.5-14.4 18.4-33.2 10.4-50.2-8.9-16.9-29.6-21.2-47.1-22-40.6-1-80.1 11.8-117.3 27a519.2 519.2 0 00-35.9 17c7.5-5-8 8.8-10 7.3l-73-61.6c-10.1-46-27.4-91.7-58.6-127.7-15-17.3-33-34-55.6-40.5a28 28 0 00-10.2-.7zm29.7 31.3c11 1.3 17.9 11.9 23.6 20.4 14.3 24.7 21 52.8 27.8 80.2-13.7-12.4-28.6-23.8-40.6-38-11-14.4-21.3-32-19.8-50.8.6-5 3-11.7 9-11.8zm99.1 158.4l62 52.8c-12.2 20.7-9.6 51 10.6 65.8 15.7 11.6 37.2 12 55.3 6.6 4.6-10.3-14-4.9-19.6-8.8-14.6-3.5-27.5-17.3-25.3-33.1.3-7 3.4-13 8.6-5.2A4503 4503 0 01-.2 657.2c-12.7 8-25.2 17-40.4 19.8a64.7 64.7 0 01-62-18.7c-25-26.2-33.5-62.6-41-97l-6.8-32.8zm194.5 27c12.8 0 27.9.7 36.9 11 6.4 9.8-.7 21.7-6.6 30-16.8 21.7-39.7 37.6-62.2 52.7-22.4-19.5-45-38.6-67.8-57.7a189 189 0 0199.7-36z" style="line-height:100%;-inkscape-font-specification:'Lucida Calligraphy';text-align:start" font-weight="400" font-size="171.1" font-family="Lucida Calligraphy" fill="#ed1818"/></clipPath><filter id="c" x="0" width="1.1" y="0" height="1.1" color-interpolation-filters="sRGB"><feGaussianBlur stdDeviation="5.3"/></filter></defs><g font-weight="400" font-size="171.1" font-family="Lucida Calligraphy"><path d="M182 320.2c-12 1.4-15.4 15.3-14.5 25.4a113.5 113.5 0 0040.5 75c19.6 18.2 40 35.5 60.1 53 10.4 44.9 18.3 91 37.7 133.3a127.9 127.9 0 0050.7 56.7c26.8 16.6 60.5 26.8 91.5 16.7 11-3.4 20-10.2 29.1-16.5 8.1-10.3 14.9 4.7 21.2 10 9.7 10.7 9.2 28-.4 38.5-6.4 7.5-17.7 14.5-27.5 9.3-9.7-4-10.7-15-8-24.2 3.4-11.3-11.4-15-19.7-12-11.4 2.4-21.2 13.8-18 25.8 3.7 13.7 14.4 27.1 29.3 28.7a65.8 65.8 0 0059.6-24.7 38.8 38.8 0 000-44.3 93.2 93.2 0 00-17.9-20.3c30.8-22.8 61.6-47.2 83.6-79.1 9.4-14.4 18.3-33.2 10.3-50.1-8.8-16.9-29.5-21.2-47-22-40.7-1-80.2 11.8-117.3 27a519.2 519.2 0 00-36 17c7.5-5.1-8 8.8-10 7.3l-73-61.6c-10.1-46-27.3-91.7-58.6-127.7-15-17.4-33-34-55.5-40.6a28 28 0 00-10.2-.6zm29.6 31.3c11.1 1.3 17.9 11.9 23.6 20.4 14.4 24.7 21 52.8 27.9 80.2-13.7-12.4-28.6-23.8-40.6-38-11-14.5-21.3-32-19.9-50.8.6-5 3-11.7 9-11.8zM310.8 510l61.9 52.8c-12.1 20.7-9.5 50.9 10.7 65.7 15.7 11.7 37.1 12.1 55.3 6.7 4.5-10.4-14-4.9-19.6-8.8-14.7-3.5-27.6-17.3-25.4-33.1.3-7 3.4-13 8.7-5.2a4503 4503 0 0158.6 50.6c-12.8 8-25.3 17-40.4 19.7a64.7 64.7 0 01-62-18.6c-25.1-26.2-33.6-62.7-41-97-2.4-10.9-4.5-21.9-6.8-32.8zm194.5 27c12.7 0 27.8.7 36.8 11 6.4 9.8-.6 21.7-6.6 30-16.8 21.7-39.6 37.6-62.2 52.7-22.3-19.5-45-38.6-67.7-57.8a189 189 0 0199.7-35.8z" style="line-height:100%;-inkscape-font-specification:'Lucida Calligraphy';text-align:start" filter="url(#c)" transform="translate(-125 -269.7)"/><path style="line-height:100%;-inkscape-font-specification:'Lucida Calligraphy';text-align:start" d="M174 316.2c-12 1.4-15.4 15.3-14.5 25.4a113.5 113.5 0 0040.5 75c19.6 18.2 40 35.5 60.1 53 10.4 44.9 18.3 91 37.7 133.3a127.9 127.9 0 0050.7 56.7c26.8 16.6 60.5 26.8 91.5 16.7 11-3.4 20-10.2 29.1-16.5 8.1-10.3 14.9 4.7 21.2 10 9.7 10.7 9.2 28-.4 38.5-6.4 7.5-17.7 14.5-27.5 9.3-9.7-4-10.7-15-8-24.2 3.4-11.3-11.4-15-19.7-12-11.4 2.4-21.2 13.8-18 25.8 3.7 13.7 14.4 27.1 29.3 28.7a65.8 65.8 0 0059.6-24.7 38.8 38.8 0 000-44.3 93.2 93.2 0 00-17.9-20.3c30.8-22.8 61.6-47.2 83.6-79.1 9.4-14.4 18.3-33.2 10.3-50.1-8.8-16.9-29.5-21.2-47-22-40.7-1-80.2 11.8-117.3 27a519.2 519.2 0 00-36 17c7.5-5.1-8 8.8-10 7.3l-73-61.6c-10.1-46-27.3-91.7-58.6-127.7-15-17.4-33-34-55.5-40.6a28 28 0 00-10.2-.6zm29.6 31.3c11.1 1.3 17.9 11.9 23.6 20.4 14.4 24.7 21 52.8 27.9 80.2-13.7-12.4-28.6-23.8-40.6-38-11-14.5-21.3-32-19.9-50.8.6-5 3-11.7 9-11.8zM302.8 506l61.9 52.8c-12.1 20.7-9.5 50.9 10.7 65.7 15.7 11.7 37.1 12.1 55.3 6.7 4.5-10.4-14-4.9-19.6-8.8-14.7-3.5-27.6-17.3-25.4-33.1.3-7 3.4-13 8.7-5.2a4503 4503 0 0158.6 50.6c-12.8 8-25.3 17-40.4 19.7a64.7 64.7 0 01-62-18.6c-25.1-26.2-33.6-62.7-41-97-2.4-10.9-4.5-21.9-6.8-32.8zm194.5 27c12.7 0 27.8.7 36.8 11 6.4 9.8-.6 21.7-6.6 30-16.8 21.7-39.6 37.6-62.2 52.7-22.3-19.5-45-38.6-67.7-57.8a189 189 0 0199.7-35.8z" fill="url(#d)" transform="translate(-125 -269.7)"/><path d="M-279.1 338.8c-12 1.4-15.4 15.3-14.5 25.4a113.5 113.5 0 0040.5 75c19.6 18.2 39.9 35.5 60.1 53 10.4 45 18.3 91.1 37.7 133.3a127.9 127.9 0 0050.7 56.7c26.7 16.6 60.5 26.8 91.5 16.7 11-3.4 20-10.2 29-16.4 8.2-10.4 15 4.7 21.3 9.9 9.6 10.7 9.2 28-.5 38.5-6.3 7.5-17.6 14.6-27.4 9.3-9.8-4-10.7-15-8-24.2 3.3-11.3-11.4-15-19.8-12-11.4 2.4-21.1 13.8-17.9 25.8 3.7 13.7 14.3 27.1 29.3 28.7a65.8 65.8 0 0059.6-24.7 38.8 38.8 0 000-44.3 93.2 93.2 0 00-17.9-20.3c30.8-22.8 61.6-47.2 83.5-79 9.5-14.4 18.4-33.2 10.4-50.2-8.9-16.9-29.6-21.2-47.1-22-40.6-1-80.1 11.8-117.3 27a519.2 519.2 0 00-35.9 17c7.5-5-8 8.8-10 7.3l-73-61.6c-10.1-46-27.4-91.7-58.6-127.7-15-17.4-33-34-55.6-40.5a28 28 0 00-10.1-.7zm29.6 31.3c11 1.3 17.9 11.9 23.6 20.4 14.4 24.7 21 52.8 27.8 80.2-13.6-12.4-28.6-23.8-40.6-38-11-14.5-21.3-32-19.8-50.8.6-5 3-11.7 9-11.8zm99.2 158.4l61.9 52.8c-12.2 20.7-9.6 51 10.6 65.8 15.7 11.6 37.2 12 55.3 6.6 4.6-10.3-14-4.9-19.5-8.8-14.7-3.5-27.6-17.3-25.4-33.1.3-7 3.4-13 8.6-5.2A4503 4503 0 01-.2 657.2c-12.7 8-25.2 17-40.3 19.8a64.7 64.7 0 01-62.1-18.7c-25-26.2-33.5-62.6-41-97l-6.7-32.8zm194.4 27c12.8 0 27.9.7 37 11 6.3 9.8-.8 21.7-6.7 30-16.8 21.7-39.7 37.6-62.2 52.7-22.4-19.5-45-38.6-67.8-57.7a189 189 0 0199.7-36z" style="line-height:100%;-inkscape-font-specification:'Lucida Calligraphy';text-align:start" clip-path="url(#e)" transform="translate(328.1 -292.3)" fill="none" stroke="url(#f)" stroke-width="8"/></g></svg>